<?xml version="1.0" encoding="UTF-8"?>
<svg width="500" height="500" xmlns="http://www.w3.org/2000/svg">
    <style>
        .title { font-family: Arial, sans-serif; font-size: 16px; font-weight: bold; }
        .axis-label { font-family: Arial, sans-serif; font-size: 12px; }
        .bar { stroke: black; stroke-width: 1; }
        .text { font-family: Arial, sans-serif; font-size: 10px; }
    </style>
    <text x="250" y="25" text-anchor="middle" class="title">ROC Curve - OpenWeight</text>
<line x1="60" y1="440" x2="440" y2="440" stroke="black" stroke-width="2"/>
<line x1="60" y1="60" x2="60" y2="440" stroke="black" stroke-width="2"/>
<line x1="60" y1="440" x2="440" y2="60" stroke="gray" stroke-width="1" stroke-dasharray="5,5"/>
<path d="M 60 60.0 L 60 60.0 L 60 60.0 L 60 60.0 L 60 60.0 L 60 60.0 L 60 60.0 L 60 60.0 L 60 60.0 L 60 60.0 L 60 60.0 L 60 60.0 L 60 60.0 L 60 60.0 L 60 60.0 L 60 60.0 L 60 60.0 L 60 60.0 L 60 60.0 L 60 60.0 L 60 60.0 L 60 60.0 L 60 60.0 L 60 60.0 L 60 60.0 L 60 60.0 L 60 60.0 L 60 60.0 L 60 60.0 L 60 60.0 L 60 60.0 L 60 60.0 L 60 60.0 L 60 60.0 L 60 60.0 L 60 60.0 L 60 60.0 L 60 60.0 L 60 60.0 L 60 60.0 L 60 60.0 L 60 60.0 L 60 60.0 L 60 60.0 L 60 60.0 L 60 60.0 L 60 60.0 L 60 60.0 L 60 60.0 L 60 60.0 L 60 60.0 L 60 60.0 L 60 60.0 L 60 60.0 L 60 60.0 L 60 60.0 L 60 60.0 L 60 60.0 L 60 60.0 L 60 60.0 L 60 60.0 L 60 60.0 L 60 60.0 L 60 60.0 L 60 60.0 L 60 60.0 L 60 60.0 L 60 60.0 L 60 60.0 L 60 60.0 L 60 60.0 L 60 60.0 L 60 60.0 L 60 60.0 L 60 60.0 L 60 60.0 L 60 60.0 L 60 60.0 L 60 60.0 L 60 60.0 L 60 60.0 L 60 60.0 L 60 60.0 L 60 60.0 L 60 60.0 L 60 60.0 L 60 60.0 L 60 60.0 L 60 60.0 L 60 60.0 L 60 60.0 L 60 60.0 L 60 60.0 L 60 60.0 L 60 60.0 L 60 60.0 L 60 60.0 L 60 60.0 L 60 60.0 L 60 60.0 L 60 440.0" fill="none" stroke="blue" stroke-width="2"/>
<text x="250" y="480" text-anchor="middle" class="axis-label">False Positive Rate</text>
<text x="20" y="250" text-anchor="middle" class="axis-label" transform="rotate(-90 20 250)">True Positive Rate</text>
<text x="430" y="420" text-anchor="end" class="text">AUC = 0.000</text>
<line x1="60.0" y1="440" x2="60.0" y2="445" stroke="black"/>
<text x="60.0" y="458" text-anchor="middle" class="text">0.0</text>
<line x1="55" y1="440.0" x2="60" y2="440.0" stroke="black"/>
<text x="50" y="443.0" text-anchor="end" class="text">0.0</text>
<line x1="136.0" y1="440" x2="136.0" y2="445" stroke="black"/>
<text x="136.0" y="458" text-anchor="middle" class="text">0.2</text>
<line x1="55" y1="364.0" x2="60" y2="364.0" stroke="black"/>
<text x="50" y="367.0" text-anchor="end" class="text">0.2</text>
<line x1="212.0" y1="440" x2="212.0" y2="445" stroke="black"/>
<text x="212.0" y="458" text-anchor="middle" class="text">0.4</text>
<line x1="55" y1="288.0" x2="60" y2="288.0" stroke="black"/>
<text x="50" y="291.0" text-anchor="end" class="text">0.4</text>
<line x1="288.0" y1="440" x2="288.0" y2="445" stroke="black"/>
<text x="288.0" y="458" text-anchor="middle" class="text">0.6</text>
<line x1="55" y1="212.0" x2="60" y2="212.0" stroke="black"/>
<text x="50" y="215.0" text-anchor="end" class="text">0.6</text>
<line x1="364.0" y1="440" x2="364.0" y2="445" stroke="black"/>
<text x="364.0" y="458" text-anchor="middle" class="text">0.8</text>
<line x1="55" y1="136.0" x2="60" y2="136.0" stroke="black"/>
<text x="50" y="139.0" text-anchor="end" class="text">0.8</text>
<line x1="440.0" y1="440" x2="440.0" y2="445" stroke="black"/>
<text x="440.0" y="458" text-anchor="middle" class="text">1.0</text>
<line x1="55" y1="60.0" x2="60" y2="60.0" stroke="black"/>
<text x="50" y="63.0" text-anchor="end" class="text">1.0</text>
</svg>