<?xml version="1.0" encoding="UTF-8"?>
<svg width="800" height="600" xmlns="http://www.w3.org/2000/svg">
    <style>
        .title { font-family: Arial, sans-serif; font-size: 16px; font-weight: bold; }
        .axis-label { font-family: Arial, sans-serif; font-size: 12px; }
        .bar { stroke: black; stroke-width: 1; }
        .text { font-family: Arial, sans-serif; font-size: 10px; }
    </style>
    <text x="400" y="25" text-anchor="middle" class="title">Training Sample Size by Weight Class</text>
<line x1="60" y1="540" x2="740" y2="540" stroke="black" stroke-width="2"/>
<line x1="60" y1="60" x2="60" y2="540" stroke="black" stroke-width="2"/>
<rect x="60.0" y="346.70746634026926" width="41.84615384615385" height="193.29253365973074" fill="#2E8B57" class="bar"/>
<text x="80.92307692307692" y="341.70746634026926" text-anchor="middle" class="text">369.000</text>
<text x="80.92307692307692" y="560" text-anchor="middle" class="text" transform="rotate(-45 80.92307692307692 560)">Bantamweight</text>
<rect x="112.3076923076923" y="540.0" width="41.84615384615385" height="0.0" fill="#2E8B57" class="bar"/>
<text x="133.23076923076923" y="535.0" text-anchor="middle" class="text">40.000</text>
<text x="133.23076923076923" y="560" text-anchor="middle" class="text" transform="rotate(-45 133.23076923076923 560)">CatchWeight</text>
<rect x="164.6153846153846" y="310.28151774785806" width="41.84615384615385" height="229.71848225214197" fill="#2E8B57" class="bar"/>
<text x="185.53846153846155" y="305.28151774785806" text-anchor="middle" class="text">431.000</text>
<text x="185.53846153846155" y="560" text-anchor="middle" class="text" transform="rotate(-45 185.53846153846155 560)">Featherweight</text>
<rect x="216.9230769230769" y="457.74785801713585" width="41.84615384615385" height="82.25214198286413" fill="#2E8B57" class="bar"/>
<text x="237.84615384615384" y="452.74785801713585" text-anchor="middle" class="text">180.000</text>
<text x="237.84615384615384" y="560" text-anchor="middle" class="text" transform="rotate(-45 237.84615384615384 560)">Flyweight</text>
<rect x="269.2307692307692" y="294.4186046511628" width="41.84615384615385" height="245.58139534883722" fill="#2E8B57" class="bar"/>
<text x="290.15384615384613" y="289.4186046511628" text-anchor="middle" class="text">458.000</text>
<text x="290.15384615384613" y="560" text-anchor="middle" class="text" transform="rotate(-45 290.15384615384613 560)">Heavyweight</text>
<rect x="321.53846153846155" y="300.8812729498164" width="41.84615384615385" height="239.11872705018362" fill="#2E8B57" class="bar"/>
<text x="342.46153846153845" y="295.8812729498164" text-anchor="middle" class="text">447.000</text>
<text x="342.46153846153845" y="560" text-anchor="middle" class="text" transform="rotate(-45 342.46153846153845 560)">LightHeavyweight</text>
<rect x="373.8461538461538" y="60.0" width="41.84615384615385" height="480.0" fill="#2E8B57" class="bar"/>
<text x="394.7692307692307" y="55.0" text-anchor="middle" class="text">857.000</text>
<text x="394.7692307692307" y="560" text-anchor="middle" class="text" transform="rotate(-45 394.7692307692307 560)">Lightweight</text>
<rect x="426.15384615384613" y="186.31578947368422" width="41.84615384615385" height="353.6842105263158" fill="#2E8B57" class="bar"/>
<text x="447.07692307692304" y="181.31578947368422" text-anchor="middle" class="text">642.000</text>
<text x="447.07692307692304" y="560" text-anchor="middle" class="text" transform="rotate(-45 447.07692307692304 560)">Middleweight</text>
<rect x="478.46153846153845" y="523.5495716034271" width="41.84615384615385" height="16.450428396572825" fill="#2E8B57" class="bar"/>
<text x="499.38461538461536" y="518.5495716034271" text-anchor="middle" class="text">68.000</text>
<text x="499.38461538461536" y="560" text-anchor="middle" class="text" transform="rotate(-45 499.38461538461536 560)">OpenWeight</text>
<rect x="530.7692307692307" y="62.937576499388" width="41.84615384615385" height="477.062423500612" fill="#2E8B57" class="bar"/>
<text x="551.6923076923076" y="57.937576499388" text-anchor="middle" class="text">852.000</text>
<text x="551.6923076923076" y="560" text-anchor="middle" class="text" transform="rotate(-45 551.6923076923076 560)">Welterweight</text>
<rect x="583.0769230769231" y="493.5862913096695" width="41.84615384615385" height="46.41370869033048" fill="#2E8B57" class="bar"/>
<text x="604.0" y="488.5862913096695" text-anchor="middle" class="text">119.000</text>
<text x="604.0" y="560" text-anchor="middle" class="text" transform="rotate(-45 604.0 560)">WomenBantamweight</text>
<rect x="635.3846153846154" y="511.7992656058752" width="41.84615384615385" height="28.200734394124847" fill="#2E8B57" class="bar"/>
<text x="656.3076923076923" y="506.7992656058752" text-anchor="middle" class="text">88.000</text>
<text x="656.3076923076923" y="560" text-anchor="middle" class="text" transform="rotate(-45 656.3076923076923 560)">WomenFlyweight</text>
<rect x="687.6923076923076" y="474.19828641370873" width="41.84615384615385" height="65.8017135862913" fill="#2E8B57" class="bar"/>
<text x="708.6153846153845" y="469.19828641370873" text-anchor="middle" class="text">152.000</text>
<text x="708.6153846153845" y="560" text-anchor="middle" class="text" transform="rotate(-45 708.6153846153845 560)">WomenStrawweight</text>
<text x="20" y="300" text-anchor="middle" class="axis-label" transform="rotate(-90 20 300)">Accuracy</text>
<line x1="55" y1="540.0" x2="60" y2="540.0" stroke="black"/>
<text x="50" y="543.0" text-anchor="end" class="text">40.00</text>
<line x1="55" y1="444.0" x2="60" y2="444.0" stroke="black"/>
<text x="50" y="447.0" text-anchor="end" class="text">203.40</text>
<line x1="55" y1="348.0" x2="60" y2="348.0" stroke="black"/>
<text x="50" y="351.0" text-anchor="end" class="text">366.80</text>
<line x1="55" y1="252.0" x2="60" y2="252.0" stroke="black"/>
<text x="50" y="255.0" text-anchor="end" class="text">530.20</text>
<line x1="55" y1="156.0" x2="60" y2="156.0" stroke="black"/>
<text x="50" y="159.0" text-anchor="end" class="text">693.60</text>
<line x1="55" y1="60.0" x2="60" y2="60.0" stroke="black"/>
<text x="50" y="63.0" text-anchor="end" class="text">857.00</text>
</svg>